<svg xmlns="http://www.w3.org/2000/svg" width="48" height="48" fill="none">
  <g clip-path="url(#A)">
    <rect x=".057" width="48.114" height="48.114" rx="24.057" fill="#f4e"/>
    <g fill="#2c2b33">
      <path d="M32.171 53.371c8.837 0 16-7.163 16-16s-7.163-16-16-16-16 7.163-16 16 7.163 16 16 16zM2.855 29.333a13.32 13.32 0 0 0 13.316-13.314A13.32 13.32 0 0 0 2.855 2.705c-7.354 0-13.312 5.961-13.312 13.314s5.961 13.314 13.312 13.314zm29.316-18.592c4.416 0 8-3.582 8-8a8 8 0 0 0-8-7.998c-4.416 0-8 3.582-8 8s3.584 8 8 8v-.002z"/>
    </g>
  </g>
  <defs>
    <clipPath id="A">
      <rect x=".057" width="48.114" height="48.114" rx="24.057" fill="#fff"/>
    </clipPath>
  </defs>
</svg>
